<svg class="border shadow-md" viewBox="0 0 1042.8 521.4" style="width: 1042.8px; height: 521.4px;" xmlns="http://www.w3.org/2000/svg" preserveAspectRatio="none"><rect class="bg" id="bg" x="0" y="0" width="1042.8" height="521.4" fill="#ffffff"/><g transform="&#10;        translate(-1762.3319999999999&#10;        -907.236)&#10;        scale(4.33)&#10;                        "><path d="M785.5,696Q723,871,522.5,868.5Q322,866,235.5,693.5Q149,521,220,321.5Q291,122,529.5,108.5Q768,95,808,308Q848,521,785.5,696Z" fill="#7F1B00" stroke="none" stroke-width="10"/></g><g transform="&#10;        translate(-1558.9859999999999&#10;        -805.563)&#10;        scale(3.94)&#10;                        "><path d="M785.5,696Q723,871,522.5,868.5Q322,866,235.5,693.5Q149,521,220,321.5Q291,122,529.5,108.5Q768,95,808,308Q848,521,785.5,696Z" fill="#892d06" stroke="none" stroke-width="10"/></g><g transform="&#10;        translate(-1350.426&#10;        -701.283)&#10;        scale(3.54)&#10;                        "><path d="M785.5,696Q723,871,522.5,868.5Q322,866,235.5,693.5Q149,521,220,321.5Q291,122,529.5,108.5Q768,95,808,308Q848,521,785.5,696Z" fill="#933f0c" stroke="none" stroke-width="10"/></g><g transform="&#10;        translate(-1147.08&#10;        -599.61)&#10;        scale(3.15)&#10;                        "><path d="M785.5,696Q723,871,522.5,868.5Q322,866,235.5,693.5Q149,521,220,321.5Q291,122,529.5,108.5Q768,95,808,308Q848,521,785.5,696Z" fill="#9d5112" stroke="none" stroke-width="10"/></g><g transform="&#10;        translate(-943.7339999999999&#10;        -497.93699999999995)&#10;        scale(2.76)&#10;                        "><path d="M785.5,696Q723,871,522.5,868.5Q322,866,235.5,693.5Q149,521,220,321.5Q291,122,529.5,108.5Q768,95,808,308Q848,521,785.5,696Z" fill="#a76318" stroke="none" stroke-width="10"/></g><g transform="&#10;        translate(-735.174&#10;        -393.657)&#10;        scale(2.36)&#10;                        "><path d="M785.5,696Q723,871,522.5,868.5Q322,866,235.5,693.5Q149,521,220,321.5Q291,122,529.5,108.5Q768,95,808,308Q848,521,785.5,696Z" fill="#b1751e" stroke="none" stroke-width="10"/></g><g transform="&#10;        translate(-531.828&#10;        -291.984)&#10;        scale(1.97)&#10;                        "><path d="M785.5,696Q723,871,522.5,868.5Q322,866,235.5,693.5Q149,521,220,321.5Q291,122,529.5,108.5Q768,95,808,308Q848,521,785.5,696Z" fill="#bb8724" stroke="none" stroke-width="10"/></g><g transform="&#10;        translate(-323.26800000000003&#10;        -187.704)&#10;        scale(1.57)&#10;                        "><path d="M785.5,696Q723,871,522.5,868.5Q322,866,235.5,693.5Q149,521,220,321.5Q291,122,529.5,108.5Q768,95,808,308Q848,521,785.5,696Z" fill="#c5992a" stroke="none" stroke-width="10"/></g><g transform="&#10;        translate(-119.92199999999997&#10;        -86.03099999999998)&#10;        scale(1.18)&#10;                        "><path d="M785.5,696Q723,871,522.5,868.5Q322,866,235.5,693.5Q149,521,220,321.5Q291,122,529.5,108.5Q768,95,808,308Q848,521,785.5,696Z" fill="#cfab30" stroke="none" stroke-width="10"/></g><g transform="&#10;        translate(83.42399999999998&#10;        15.641999999999989)&#10;        scale(0.79)&#10;                        "><path d="M785.5,696Q723,871,522.5,868.5Q322,866,235.5,693.5Q149,521,220,321.5Q291,122,529.5,108.5Q768,95,808,308Q848,521,785.5,696Z" fill="#d9bd36" stroke="none" stroke-width="10"/></g><g transform="&#10;        translate(291.984&#10;        119.922)&#10;        scale(0.39)&#10;                        "><path d="M785.5,696Q723,871,522.5,868.5Q322,866,235.5,693.5Q149,521,220,321.5Q291,122,529.5,108.5Q768,95,808,308Q848,521,785.5,696Z" fill="#e3cf3c" stroke="none" stroke-width="10"/></g></svg>