<svg class="border shadow-md" viewBox="0 0 597.52 597.52" style="width: 597.52px; height: 597.52px;" xmlns="http://www.w3.org/2000/svg" preserveAspectRatio="none"><rect class="bg" id="bg" x="0" y="0" width="597.52" height="597.52" fill="#ffffff"/><g transform="rotate(0 298.76 298.76)"><path id="-1" d="M -159.50 -19.79 S -89.75 -67.79&#10;            0.00 -19.79 4.50 -44.69&#10;            159.50 -19.79 229.26 -45.79&#10;            319.01 -19.79 388.76 -61.79&#10;            478.51 -19.79 534.02 -47.79&#10;            638.02 -19.79 707.77 -44.69&#10;            797.52 -19.79 867.27 -64.79&#10;            957.02 -19.79 h 110 V 797.52 H -159.50 Z" fill="#FFE21C"/><path id="0" d="M -159.50 30.00 S -135.00 -2.00&#10;            0.00 30.00 15.50 5.10&#10;            159.50 30.00 197.01 5.10&#10;            319.01 30.00 373.51 5.10&#10;            478.51 30.00 548.26 5.10&#10;            638.02 30.00 707.77 -17.00&#10;            797.52 30.00 867.27 5.10&#10;            957.02 30.00 h 110 V 797.52 H -159.50 Z" fill="#f5d51b"/><path id="1" d="M -159.50 79.79 S -148.00 47.79&#10;            0.00 79.79 18.50 54.90&#10;            159.50 79.79 229.26 54.90&#10;            319.01 79.79 388.76 52.79&#10;            478.51 79.79 548.26 54.90&#10;            638.02 79.79 707.77 54.90&#10;            797.52 79.79 867.27 54.90&#10;            957.02 79.79 h 110 V 797.52 H -159.50 Z" fill="#ebc81a"/><path id="2" d="M -159.50 129.59 S -89.75 85.59&#10;            0.00 129.59 18.50 98.59&#10;            159.50 129.59 229.26 102.59&#10;            319.01 129.59 314.51 92.59&#10;            478.51 129.59 524.02 104.69&#10;            638.02 129.59 649.52 104.69&#10;            797.52 129.59 802.02 80.59&#10;            957.02 129.59 h 110 V 797.52 H -159.50 Z" fill="#e1bb19"/><path id="3" d="M -159.50 179.38 S -130.00 154.48&#10;            0.00 179.38 37.50 154.48&#10;            159.50 179.38 194.01 154.48&#10;            319.01 179.38 388.76 137.38&#10;            478.51 179.38 548.26 145.38&#10;            638.02 179.38 654.52 138.38&#10;            797.52 179.38 867.27 154.48&#10;            957.02 179.38 h 110 V 797.52 H -159.50 Z" fill="#d7ae18"/><path id="4" d="M -159.50 229.17 S -89.75 204.28&#10;            0.00 229.17 67.50 200.17&#10;            159.50 229.17 200.01 204.28&#10;            319.01 229.17 352.51 204.28&#10;            478.51 229.17 523.02 191.17&#10;            638.02 229.17 707.77 204.28&#10;            797.52 229.17 867.27 204.28&#10;            957.02 229.17 h 110 V 797.52 H -159.50 Z" fill="#cda117"/><path id="5" d="M -159.50 278.97 S -166.00 254.07&#10;            0.00 278.97 6.50 229.97&#10;            159.50 278.97 202.01 254.07&#10;            319.01 278.97 388.76 242.97&#10;            478.51 278.97 546.02 247.97&#10;            638.02 278.97 707.77 254.07&#10;            797.52 278.97 824.02 237.97&#10;            957.02 278.97 h 110 V 797.52 H -159.50 Z" fill="#c39416"/><path id="6" d="M -159.50 328.76 S -89.75 281.76&#10;            0.00 328.76 69.75 290.76&#10;            159.50 328.76 161.01 303.86&#10;            319.01 328.76 358.51 285.76&#10;            478.51 328.76 548.26 285.76&#10;            638.02 328.76 656.52 303.86&#10;            797.52 328.76 867.27 303.76&#10;            957.02 328.76 h 110 V 797.52 H -159.50 Z" fill="#b98715"/><path id="7" d="M -159.50 378.55 S -157.00 353.66&#10;            0.00 378.55 31.50 329.55&#10;            159.50 378.55 157.01 353.66&#10;            319.01 378.55 310.51 340.55&#10;            478.51 378.55 544.02 353.66&#10;            638.02 378.55 686.52 353.66&#10;            797.52 378.55 804.02 342.55&#10;            957.02 378.55 h 110 V 797.52 H -159.50 Z" fill="#af7a14"/><path id="8" d="M -159.50 428.35 S -89.75 403.45&#10;            0.00 428.35 69.75 403.45&#10;            159.50 428.35 193.01 403.45&#10;            319.01 428.35 388.76 403.45&#10;            478.51 428.35 548.26 403.45&#10;            638.02 428.35 707.77 403.45&#10;            797.52 428.35 867.27 380.35&#10;            957.02 428.35 h 110 V 797.52 H -159.50 Z" fill="#a56d13"/><path id="9" d="M -159.50 478.14 S -106.00 433.14&#10;            0.00 478.14 69.75 440.14&#10;            159.50 478.14 229.26 451.14&#10;            319.01 478.14 364.51 453.24&#10;            478.51 478.14 511.02 453.14&#10;            638.02 478.14 634.52 453.24&#10;            797.52 478.14 867.27 453.24&#10;            957.02 478.14 h 110 V 797.52 H -159.50 Z" fill="#9b6012"/><path id="10" d="M -159.50 527.93 S -89.75 503.04&#10;            0.00 527.93 69.75 503.04&#10;            159.50 527.93 229.26 495.93&#10;            319.01 527.93 388.76 503.04&#10;            478.51 527.93 542.02 485.93&#10;            638.02 527.93 707.77 503.04&#10;            797.52 527.93 867.27 503.04&#10;            957.02 527.93 h 110 V 797.52 H -159.50 Z" fill="#915311"/><path id="11" d="M -159.50 577.73 S -89.75 539.73&#10;            0.00 577.73 52.50 552.83&#10;            159.50 577.73 229.26 552.83&#10;            319.01 577.73 373.51 540.73&#10;            478.51 577.73 526.02 552.83&#10;            638.02 577.73 707.77 550.73&#10;            797.52 577.73 867.27 552.83&#10;            957.02 577.73 h 110 V 797.52 H -159.50 Z" fill="#874610"/></g></svg>